<svg width="14" height="14" viewBox="0 0 14 14" fill="none" xmlns="http://www.w3.org/2000/svg">
<circle cx="7" cy="7" r="6.375" stroke="#515151" stroke-width="0.75"/>
<path fill-rule="evenodd" clip-rule="evenodd" d="M7.375 8.5H6.625C6.41875 8.5 6.25 8.33125 6.25 8.125H3.62875V9.625C3.62875 10.0375 3.96625 10.375 4.37875 10.375H9.625C10.0375 10.375 10.375 10.0375 10.375 9.625V8.125H7.75C7.75 8.33125 7.58125 8.5 7.375 8.5ZM10 5.125H8.5C8.5 4.29625 7.82875 3.625 7 3.625C6.17125 3.625 5.5 4.29625 5.5 5.125H4C3.5875 5.125 3.25 5.4625 3.25 5.875V7C3.25 7.41625 3.58375 7.75 4 7.75H6.25V7.375C6.25 7.16875 6.41875 7 6.625 7H7.375C7.58125 7 7.75 7.16875 7.75 7.375V7.75H10C10.4125 7.75 10.75 7.4125 10.75 7V5.875C10.75 5.4625 10.4125 5.125 10 5.125ZM6.25 5.125C6.25 4.7125 6.5875 4.375 7 4.375C7.4125 4.375 7.75 4.7125 7.75 5.125H6.24625H6.25Z" fill="#515151"/>
</svg>
