<svg width="28" height="30" viewBox="0 0 28 30" fill="none" xmlns="http://www.w3.org/2000/svg">
<path fill-rule="evenodd" clip-rule="evenodd" d="M20 16.5H15.5C14.675 16.5 14 17.175 14 18V22.5C14 23.325 14.675 24 15.5 24H20C20.825 24 21.5 23.325 21.5 22.5V18C21.5 17.175 20.825 16.5 20 16.5ZM20 1.5V3H8V1.5C8 0.675 7.325 0 6.5 0C5.675 0 5 0.675 5 1.5V3H3.5C1.835 3 0.515 4.35 0.515 6L0.5 27C0.5 28.65 1.835 30 3.5 30H24.5C26.15 30 27.5 28.65 27.5 27V6C27.5 4.35 26.15 3 24.5 3H23V1.5C23 0.675 22.325 0 21.5 0C20.675 0 20 0.675 20 1.5ZM23 27H5C4.175 27 3.5 26.325 3.5 25.5V10.5H24.5V25.5C24.5 26.325 23.825 27 23 27Z" fill="#1F518B"/>
</svg>
