<svg width="46" height="48" viewBox="0 0 46 48" fill="none" xmlns="http://www.w3.org/2000/svg">
<path fill-rule="evenodd" clip-rule="evenodd" d="M40.5 5H38V1.25C38 0.559644 37.4404 0 36.75 0H34.25C33.5596 0 33 0.559644 33 1.25V5H13V1.25C13 0.559644 12.4404 0 11.75 0H9.25C8.55964 0 8 0.559644 8 1.25V5H5.5C2.73858 5 0.5 7.23858 0.5 10V42.5C0.5 45.2614 2.73858 47.5 5.5 47.5H40.5C43.2614 47.5 45.5 45.2614 45.5 42.5V10C45.5 7.23858 43.2614 5 40.5 5ZM40.5 42.5H5.5V15H40.5V42.5ZM24.25 25H21.75C21.0596 25 20.5 24.4404 20.5 23.75V21.25C20.5 20.5596 21.0596 20 21.75 20H24.25C24.9404 20 25.5 20.5596 25.5 21.25V23.75C25.5 24.4404 24.9404 25 24.25 25ZM34.25 25C34.9404 25 35.5 24.4404 35.5 23.75V21.25C35.5 20.5596 34.9404 20 34.25 20H31.75C31.0596 20 30.5 20.5596 30.5 21.25V23.75C30.5 24.4404 31.0596 25 31.75 25H34.25ZM14.25 25H11.75C11.0596 25 10.5 24.4404 10.5 23.75V21.25C10.5 20.5596 11.0596 20 11.75 20H14.25C14.9404 20 15.5 20.5596 15.5 21.25V23.75C15.5 24.4404 14.9404 25 14.25 25ZM21.75 35H24.25C24.9404 35 25.5 34.4404 25.5 33.75V31.25C25.5 30.5596 24.9404 30 24.25 30H21.75C21.0596 30 20.5 30.5596 20.5 31.25V33.75C20.5 34.4404 21.0596 35 21.75 35ZM15.5 33.75C15.5 34.4404 14.9404 35 14.25 35H11.75C11.0596 35 10.5 34.4404 10.5 33.75V31.25C10.5 30.5596 11.0596 30 11.75 30H14.25C14.9404 30 15.5 30.5596 15.5 31.25V33.75Z" fill="url(#paint0_linear_1786_884)"/>
<defs>
<linearGradient id="paint0_linear_1786_884" x1="0.5" y1="0" x2="49.6423" y2="1.94446" gradientUnits="userSpaceOnUse">
<stop stop-color="#FF9700"/>
<stop offset="0.875922" stop-color="#DE8300"/>
</linearGradient>
</defs>
</svg>
