<svg width="50" height="50" viewBox="0 0 50 50" fill="none" xmlns="http://www.w3.org/2000/svg">
<path fill-rule="evenodd" clip-rule="evenodd" d="M24.975 0C11.175 0 0 11.2 0 25C0 38.8 11.175 50 24.975 50C38.8 50 50 38.8 50 25C50 11.2 38.8 0 24.975 0ZM25 45C13.95 45 5 36.05 5 25C5 13.95 13.95 5 25 5C36.05 5 45 13.95 45 25C45 36.05 36.05 45 25 45ZM24.45 12.5H24.3C23.3 12.5 22.5 13.3 22.5 14.3V26.1C22.5 26.975 22.95 27.8 23.725 28.25L34.1 34.475C34.95 34.975 36.05 34.725 36.55 33.875C37.075 33.025 36.8 31.9 35.925 31.4L26.25 25.65V14.3C26.25 13.3 25.45 12.5 24.45 12.5Z" fill="url(#paint0_linear_1786_4561)"/>
<defs>
<linearGradient id="paint0_linear_1786_4561" x1="0" y1="0" x2="54.5928" y2="2.28013" gradientUnits="userSpaceOnUse">
<stop stop-color="#FF9700"/>
<stop offset="0.875922" stop-color="#DE8300"/>
</linearGradient>
</defs>
</svg>
