<svg width="30" height="31" viewBox="0 0 30 31" fill="none" xmlns="http://www.w3.org/2000/svg">
<path fill-rule="evenodd" clip-rule="evenodd" d="M15.0005 0.00195312C6.72049 0.00195312 0.000488281 6.72195 0.000488281 15.002C0.000488281 23.2819 6.72049 30.0019 15.0005 30.0019C23.2805 30.0019 30.0005 23.2819 30.0005 15.002C30.0005 6.72195 23.2805 0.00195312 15.0005 0.00195312ZM17.1156 24.1376V25.0076C17.1156 26.1026 16.2156 27.0026 15.1206 27.0026H15.1056C14.0106 27.0026 13.1106 26.1026 13.1106 25.0076V24.1076C11.1156 23.6876 9.34556 22.5926 8.59556 20.7476C8.25056 19.9226 8.89555 19.0076 9.79556 19.0076H10.1556C10.7106 19.0076 11.1606 19.3826 11.3706 19.9076C11.8056 21.0326 12.9456 21.8126 15.1356 21.8126C18.0756 21.8126 18.7356 20.3426 18.7356 19.4276C18.7356 18.1826 18.0756 17.0126 14.7306 16.2176C11.0106 15.3176 8.46056 13.7876 8.46056 10.7126C8.46056 8.1326 10.5456 6.4526 13.1256 5.8976V4.9976C13.1256 3.9026 14.0256 3.0026 15.1206 3.0026H15.1356C16.2306 3.0026 17.1306 3.9026 17.1306 4.9976V5.9276C19.2006 6.4376 20.5056 7.7276 21.0756 9.3176C21.3756 10.1426 20.7456 11.0126 19.8606 11.0126H19.4706C18.9156 11.0126 18.4656 10.6226 18.3156 10.0826C17.9706 8.9426 17.0256 8.2076 15.1356 8.2076C12.8856 8.2076 11.5356 9.2276 11.5356 10.6676C11.5356 11.9276 12.5106 12.7526 15.5406 13.5326C18.5706 14.3126 21.8106 15.6176 21.8106 19.3976C21.7806 22.1426 19.7256 23.6426 17.1156 24.1376Z" fill="#1F518B"/>
</svg>
