<svg width="90" height="90" viewBox="0 0 90 90" fill="none" xmlns="http://www.w3.org/2000/svg">
<path fill-rule="evenodd" clip-rule="evenodd" d="M76.7625 21.1125C78.225 22.575 78.225 24.9 76.7625 26.3625L34.2375 68.8875C32.775 70.35 30.45 70.35 28.9875 68.8875L13.2375 53.1375C11.775 51.675 11.775 49.35 13.2375 47.8875C14.7 46.425 17.025 46.425 18.4875 47.8875L31.6125 61.0125L71.5125 21.1125C72.975 19.65 75.3 19.65 76.7625 21.1125ZM68.85 13.1625L31.6125 50.4L21.15 39.9375C18.225 37.0125 13.4625 37.0125 10.5375 39.9375L5.2875 45.1875C2.3625 48.1125 2.3625 52.875 5.2875 55.8L26.2875 76.8C29.2125 79.725 33.975 79.725 36.9 76.8L84.7125 29.025C87.6375 26.1 87.6375 21.3375 84.7125 18.4125L79.4625 13.1625C76.5 10.2375 71.775 10.2375 68.85 13.1625Z" fill="url(#paint0_linear_1242_17646)"/>
<defs>
<linearGradient id="paint0_linear_1242_17646" x1="3.09375" y1="10.9687" x2="94.5225" y2="15.6736" gradientUnits="userSpaceOnUse">
<stop stop-color="#FF9700"/>
<stop offset="0.875922" stop-color="#DE8300"/>
</linearGradient>
</defs>
</svg>
