<svg width="36" height="35" viewBox="0 0 36 35" fill="none" xmlns="http://www.w3.org/2000/svg">
<path fill-rule="evenodd" clip-rule="evenodd" d="M26.625 10.5191L21 5.11915L6.225 19.3031C6.075 19.4471 6 19.6199 6 19.8215V24.1991C6 24.6023 6.33 24.9191 6.75 24.9191H11.31C11.505 24.9191 11.7 24.8471 11.835 24.7031L26.625 10.5191ZM31.065 6.25675C31.65 5.69515 31.65 4.78795 31.065 4.22635L27.555 0.856747C26.97 0.295147 26.025 0.295147 25.44 0.856747L22.5 3.67915L28.125 9.07915L31.065 6.25675Z" fill="#1F518B"/>
<path fill-rule="evenodd" clip-rule="evenodd" d="M3 29.2383H33C34.65 29.2383 36 30.5343 36 32.1183C36 33.7023 34.65 34.9983 33 34.9983H3C1.35 34.9983 0 33.7023 0 32.1183C0 30.5343 1.35 29.2383 3 29.2383Z" fill="#D0D0D0"/>
</svg>
