<svg width="97" height="98" viewBox="0 0 97 98" fill="none" xmlns="http://www.w3.org/2000/svg">
<path d="M5.16699 27.3327V16.4993C5.16699 13.6262 6.30836 10.8707 8.34 8.83902C10.3716 6.80738 13.1271 5.66602 16.0003 5.66602H26.8337M5.16699 70.666V81.4993C5.16699 84.3725 6.30836 87.128 8.34 89.1597C10.3716 91.1913 13.1271 92.3327 16.0003 92.3327H26.8337M70.167 5.66602H81.0003C83.8735 5.66602 86.629 6.80738 88.6606 8.83902C90.6923 10.8707 91.8337 13.6262 91.8337 16.4993V27.3327M70.167 92.3327H81.0003C83.8735 92.3327 86.629 91.1913 88.6606 89.1597C90.6923 87.128 91.8337 84.3725 91.8337 81.4993V70.666M32.2503 38.166H32.3045M64.7503 38.166H64.8045M34.9587 65.5202C36.7238 63.7186 38.8308 62.2874 41.156 61.3103C43.4813 60.3332 45.9781 59.8299 48.5003 59.8299C51.0225 59.8299 53.5194 60.3332 55.8446 61.3103C58.1699 62.2874 60.2768 63.7186 62.042 65.5202" stroke="url(#paint0_linear_1430_16978)" stroke-width="10" stroke-linecap="round" stroke-linejoin="round"/>
<defs>
<linearGradient id="paint0_linear_1430_16978" x1="5.16699" y1="5.66602" x2="99.7945" y2="9.61825" gradientUnits="userSpaceOnUse">
<stop stop-color="#FF9700"/>
<stop offset="0.875922" stop-color="#DE8300"/>
</linearGradient>
</defs>
</svg>
