<svg width="28" height="28" viewBox="0 0 28 28" fill="none" xmlns="http://www.w3.org/2000/svg">
<path fill-rule="evenodd" clip-rule="evenodd" d="M24.8451 18.8906L21.0351 18.4556C20.1201 18.3506 19.2201 18.6656 18.5751 19.3106L15.8151 22.0706C11.5701 19.9106 8.09006 16.4456 5.93006 12.1856L8.70506 9.41062C9.35006 8.76562 9.66506 7.86562 9.56006 6.95062L9.12506 3.17062C8.94506 1.65562 7.67006 0.515625 6.14006 0.515625H3.54506C1.85006 0.515625 0.440061 1.92562 0.545061 3.62063C1.34006 16.4306 11.5851 26.6606 24.3801 27.4556C26.0751 27.5606 27.4851 26.1506 27.4851 24.4556V21.8606C27.5001 20.3456 26.3601 19.0706 24.8451 18.8906Z" fill="#1F518B"/>
</svg>
