<svg width="14" height="14" viewBox="0 0 14 14" fill="none" xmlns="http://www.w3.org/2000/svg">
<circle cx="7" cy="7" r="6.375" stroke="#515151" stroke-width="0.75"/>
<path fill-rule="evenodd" clip-rule="evenodd" d="M10 4H4C3.5875 4 3.25375 4.3375 3.25375 4.75L3.25 9.25C3.25 9.6625 3.5875 10 4 10H10C10.4125 10 10.75 9.6625 10.75 9.25V4.75C10.75 4.3375 10.4125 4 10 4ZM9.85 5.59341L7.19875 7.25091C7.07875 7.32591 6.92125 7.32591 6.80125 7.25091L4.15 5.59341C4.05625 5.53341 4 5.43216 4 5.32341C4 5.07216 4.27375 4.92216 4.4875 5.05341L7 6.62466L9.5125 5.05341C9.72625 4.92216 10 5.07216 10 5.32341C10 5.43216 9.94375 5.53341 9.85 5.59341Z" fill="#515151"/>
</svg>
