<svg width="14" height="14" viewBox="0 0 14 14" fill="none" xmlns="http://www.w3.org/2000/svg">
<circle cx="7" cy="7" r="6.375" stroke="#515151" stroke-width="0.75"/>
<path fill-rule="evenodd" clip-rule="evenodd" d="M7 3.25C5.54875 3.25 4.375 4.42375 4.375 5.875C4.375 7.43875 6.0325 9.595 6.715 10.4163C6.865 10.5963 7.13875 10.5963 7.28875 10.4163C7.9675 9.595 9.625 7.43875 9.625 5.875C9.625 4.42375 8.45125 3.25 7 3.25ZM7 6.8125C6.4825 6.8125 6.0625 6.3925 6.0625 5.875C6.0625 5.3575 6.4825 4.9375 7 4.9375C7.5175 4.9375 7.9375 5.3575 7.9375 5.875C7.9375 6.3925 7.5175 6.8125 7 6.8125Z" fill="#515151"/>
</svg>
