<svg width="14" height="14" viewBox="0 0 14 14" fill="none" xmlns="http://www.w3.org/2000/svg">
<circle cx="7" cy="7" r="6.375" stroke="#515151" stroke-width="0.75"/>
<path d="M8.875 10.3757C8.25485 10.3751 7.64437 10.2218 7.0975 9.9294L6.92875 9.83565C5.76278 9.20877 4.80688 8.25287 4.18 7.0869L4.08625 6.91815C3.78618 6.36817 3.62767 5.75216 3.625 5.12565V4.8744C3.62484 4.67451 3.70449 4.48282 3.84625 4.3419L4.48 3.70815C4.54155 3.64612 4.62843 3.61623 4.71511 3.62725C4.80179 3.63827 4.87843 3.68895 4.9225 3.7644L5.76625 5.2119C5.85157 5.35923 5.82694 5.54556 5.70625 5.66565L4.9975 6.3744C4.93864 6.43261 4.92492 6.52254 4.96375 6.59565L5.095 6.84315C5.56639 7.71632 6.28347 8.4321 7.1575 8.9019L7.405 9.0369C7.47811 9.07573 7.56804 9.06201 7.62625 9.00315L8.335 8.2944C8.45509 8.17371 8.64142 8.14908 8.78875 8.2344L10.2362 9.07815C10.3117 9.12222 10.3624 9.19886 10.3734 9.28554C10.3844 9.37222 10.3545 9.4591 10.2925 9.52065L9.65875 10.1544C9.51783 10.2962 9.32614 10.3758 9.12625 10.3757H8.875Z" fill="#515151"/>
</svg>
