<svg width="12" height="14" viewBox="0 0 12 14" fill="none" xmlns="http://www.w3.org/2000/svg">
<path fill-rule="evenodd" clip-rule="evenodd" d="M6 1C3.24 1 1 3.24 1 6C1 8.76 3.24 11 6 11C8.76 11 11 8.76 11 6C11 3.24 8.76 1 6 1ZM6.70499 9.04464V9.33464C6.70499 9.69964 6.40499 9.99964 6.03999 9.99964H6.03499C5.66999 9.99964 5.36999 9.69964 5.36999 9.33464V9.03464C4.70499 8.89464 4.11499 8.52964 3.86499 7.91464C3.74999 7.63964 3.96499 7.33464 4.26499 7.33464H4.38499C4.56999 7.33464 4.71999 7.45964 4.78999 7.63464C4.93499 8.00964 5.31499 8.26964 6.04499 8.26964C7.02499 8.26964 7.24499 7.77964 7.24499 7.47464C7.24499 7.05964 7.02499 6.66964 5.90999 6.40464C4.66999 6.10464 3.81999 5.59464 3.81999 4.56964C3.81999 3.70964 4.51499 3.14964 5.37499 2.96464V2.66464C5.37499 2.29964 5.67499 1.99964 6.03999 1.99964H6.04499C6.40999 1.99964 6.70999 2.29964 6.70999 2.66464V2.97464C7.39999 3.14464 7.83499 3.57464 8.02499 4.10464C8.12499 4.37964 7.91499 4.66964 7.61999 4.66964H7.48999C7.30499 4.66964 7.15499 4.53964 7.10499 4.35964C6.98999 3.97964 6.67499 3.73464 6.04499 3.73464C5.29499 3.73464 4.84499 4.07464 4.84499 4.55464C4.84499 4.97464 5.16999 5.24964 6.17999 5.50964C7.18999 5.76964 8.26999 6.20464 8.26999 7.46464C8.25999 8.37964 7.57499 8.87964 6.70499 9.04464Z" fill="white"/>
<path fill-rule="evenodd" clip-rule="evenodd" d="M9.58333 9C8.43333 9 7.5 9.93333 7.5 11.0833C7.5 12.2333 8.43333 13.1667 9.58333 13.1667C10.7333 13.1667 11.6667 12.2333 11.6667 11.0833C11.6667 9.93333 10.7333 9 9.58333 9ZM9.58352 12.7501C8.66477 12.7501 7.91685 12.0022 7.91685 11.0834C7.91685 10.1647 8.66477 9.41673 9.58352 9.41673C10.5023 9.41673 11.2502 10.1647 11.2502 11.0834C11.2502 12.0022 10.5023 12.7501 9.58352 12.7501ZM10.3918 10.31L9.16683 11.535L8.77516 11.1433C8.69391 11.0621 8.56266 11.0621 8.48141 11.1433C8.40016 11.2246 8.40016 11.3558 8.48141 11.4371L9.02099 11.9767C9.10224 12.0579 9.23349 12.0579 9.31474 11.9767L10.6877 10.6038C10.7689 10.5225 10.7689 10.3913 10.6877 10.31C10.6064 10.2288 10.4731 10.2288 10.3918 10.31Z" fill="white"/>
</svg>
