<svg width="12" height="12" viewBox="0 0 12 12" fill="none" xmlns="http://www.w3.org/2000/svg">
<path fill-rule="evenodd" clip-rule="evenodd" d="M10 1.49805H9.5V0.998047C9.5 0.723047 9.275 0.498047 9 0.498047C8.725 0.498047 8.5 0.723047 8.5 0.998047V1.49805H3.5V0.998047C3.5 0.723047 3.275 0.498047 3 0.498047C2.725 0.498047 2.5 0.723047 2.5 0.998047V1.49805H2C1.45 1.49805 1 1.94805 1 2.49805V10.498C1 11.048 1.45 11.498 2 11.498H10C10.55 11.498 11 11.048 11 10.498V2.49805C11 1.94805 10.55 1.49805 10 1.49805ZM9.50006 10.4981H2.50006C2.22506 10.4981 2.00006 10.2731 2.00006 9.99806V3.99806H10.0001V9.99806C10.0001 10.2731 9.77506 10.4981 9.50006 10.4981ZM6.33834 9.28036C6.14834 9.45286 5.85584 9.45286 5.66584 9.27786L5.63834 9.25286C4.32584 8.06536 3.46834 7.28786 3.50084 6.31786C3.51584 5.89286 3.73334 5.48536 4.08584 5.24536C4.74584 4.79536 5.56084 5.00536 6.00084 5.52036C6.44084 5.00536 7.25584 4.79286 7.91584 5.24536C8.26834 5.48536 8.48584 5.89286 8.50084 6.31786C8.53584 7.28786 7.67584 8.06536 6.36334 9.25786L6.33834 9.28036Z" fill="white"/>
</svg>
