<svg width="15" height="17" viewBox="0 0 15 17" fill="none" xmlns="http://www.w3.org/2000/svg">
<path fill-rule="evenodd" clip-rule="evenodd" d="M13.1621 2.12327H12.454V1.41515C12.454 1.02568 12.1354 0.707031 11.7459 0.707031C11.3564 0.707031 11.0378 1.02568 11.0378 1.41515V2.12327H3.9566V1.41515C3.9566 1.02568 3.63795 0.707031 3.24849 0.707031C2.85902 0.707031 2.54037 1.02568 2.54037 1.41515V2.12327H1.83225C1.05332 2.12327 0.416016 2.76057 0.416016 3.5395V14.8694C0.416016 15.6483 1.05332 16.2856 1.83225 16.2856H13.1621C13.9411 16.2856 14.5784 15.6483 14.5784 14.8694V3.5395C14.5784 2.76057 13.9411 2.12327 13.1621 2.12327ZM12.454 14.8699H2.54031C2.15085 14.8699 1.83219 14.5513 1.83219 14.1618V5.66439H13.1621V14.1618C13.1621 14.5513 12.8434 14.8699 12.454 14.8699ZM7.97638 13.1453C7.70729 13.3896 7.29304 13.3896 7.02396 13.1418L6.98501 13.1064C5.1262 11.4246 3.91178 10.3235 3.95781 8.94973C3.97905 8.34783 4.28708 7.77071 4.78631 7.43082C5.72102 6.79351 6.87525 7.09092 7.4984 7.82028C8.12154 7.09092 9.27577 6.78997 10.2105 7.43082C10.7097 7.77071 11.0177 8.34783 11.039 8.94973C11.0886 10.3235 9.87059 11.4246 8.01178 13.1135L7.97638 13.1453Z" fill="#515151"/>
</svg>
