<svg width="25" height="27" viewBox="0 0 25 27" fill="none" xmlns="http://www.w3.org/2000/svg">
<path fill-rule="evenodd" clip-rule="evenodd" d="M12.2778 2.00195C6.75783 2.00195 2.27783 6.48195 2.27783 12.002C2.27783 17.522 6.75783 22.002 12.2778 22.002C17.7978 22.002 22.2778 17.522 22.2778 12.002C22.2778 6.48195 17.7978 2.00195 12.2778 2.00195ZM13.6882 18.0918V18.6718C13.6882 19.4018 13.0882 20.0018 12.3582 20.0018H12.3482C11.6182 20.0018 11.0182 19.4018 11.0182 18.6718V18.0718C9.68815 17.7918 8.50815 17.0618 8.00815 15.8318C7.77815 15.2818 8.20815 14.6718 8.80815 14.6718H9.04815C9.41815 14.6718 9.71815 14.9218 9.85815 15.2718C10.1482 16.0218 10.9082 16.5418 12.3682 16.5418C14.3282 16.5418 14.7682 15.5618 14.7682 14.9518C14.7682 14.1218 14.3282 13.3418 12.0982 12.8118C9.61815 12.2118 7.91815 11.1918 7.91815 9.14183C7.91815 7.42183 9.30815 6.30183 11.0282 5.93183V5.33183C11.0282 4.60183 11.6282 4.00183 12.3582 4.00183H12.3682C13.0982 4.00183 13.6982 4.60183 13.6982 5.33183V5.95183C15.0782 6.29183 15.9482 7.15183 16.3282 8.21183C16.5282 8.76183 16.1082 9.34183 15.5182 9.34183H15.2582C14.8882 9.34183 14.5882 9.08183 14.4882 8.72183C14.2582 7.96183 13.6282 7.47183 12.3682 7.47183C10.8682 7.47183 9.96815 8.15183 9.96815 9.11183C9.96815 9.95183 10.6182 10.5018 12.6382 11.0218C14.6582 11.5418 16.8182 12.4118 16.8182 14.9318C16.7982 16.7618 15.4282 17.7618 13.6882 18.0918V18.0918Z" fill="#515151"/>
<path fill-rule="evenodd" clip-rule="evenodd" d="M19.4445 18.002C17.1445 18.002 15.2778 19.8686 15.2778 22.1686C15.2778 24.4686 17.1445 26.3353 19.4445 26.3353C21.7445 26.3353 23.6112 24.4686 23.6112 22.1686C23.6112 19.8686 21.7445 18.002 19.4445 18.002ZM19.4447 25.5034C17.6072 25.5034 16.1114 24.0076 16.1114 22.1701C16.1114 20.3326 17.6072 18.8368 19.4447 18.8368C21.2822 18.8368 22.7781 20.3326 22.7781 22.1701C22.7781 24.0076 21.2822 25.5034 19.4447 25.5034ZM21.0615 20.6216L18.6115 23.0716L17.8282 22.2883C17.6657 22.1258 17.4032 22.1258 17.2407 22.2883C17.0782 22.4508 17.0782 22.7133 17.2407 22.8758L18.3198 23.9549C18.4823 24.1174 18.7448 24.1174 18.9073 23.9549L21.6532 21.2091C21.8157 21.0466 21.8157 20.7841 21.6532 20.6216C21.4907 20.4591 21.224 20.4591 21.0615 20.6216Z" fill="#515151"/>
</svg>
