<svg width="25" height="24" viewBox="0 0 25 24" fill="none" xmlns="http://www.w3.org/2000/svg">
<path fill-rule="evenodd" clip-rule="evenodd" d="M18.5 8C18.5 4.69 15.81 2 12.5 2C9.19 2 6.5 4.69 6.5 8C6.5 11.49 10.12 16.19 11.73 18.12C12.13 18.6 12.86 18.6 13.26 18.12C14.88 16.19 18.5 11.49 18.5 8ZM10.5 8C10.5 6.9 11.4 6 12.5 6C13.6 6 14.5 6.9 14.5 8C14.5 9.1 13.61 10 12.5 10C11.4 10 10.5 9.1 10.5 8ZM5.5 21C5.5 21.55 5.95 22 6.5 22H18.5C19.05 22 19.5 21.55 19.5 21C19.5 20.45 19.05 20 18.5 20H6.5C5.95 20 5.5 20.45 5.5 21Z" fill="white"/>
</svg>
